<svg version="1.1" id="Layer_1" xmlns="http://www.w3.org/2000/svg" x="0" y="0" viewBox="0 0 630 90" xml:space="preserve"><style>.st0{fill:#333}.st1{fill:#930}.st2{fill:#005be3}</style><path class="st0" d="M15.7 18.1h4.5v3h-4.5zM10.2 18.1h4.5v3h-4.5zM15.7 14.1h4.5v3h-4.5z"/><path class="st0" d="M3.2 25.6c0 .3.2.5.5.5h23c.3 0 .5-.2.5-.5V10.1h-24v15.5zm2.5-7.5c-.3 0-.5-.2-.5-.5s.2-.5.5-.5h3.5v-3H5.7c-.3 0-.5-.2-.5-.5s.2-.5.5-.5h3.5v-1.5c0-.3.2-.5.5-.5s.5.2.5.5v1.5h4.5v-1.5c0-.3.2-.5.5-.5s.5.2.5.5v1.5h4.5v-1.5c0-.3.2-.5.5-.5s.5.2.5.5v1.5h3.5c.3 0 .5.2.5.5s-.2.5-.5.5h-3.5v3h3.5c.3 0 .5.2.5.5s-.2.5-.5.5h-3.5v3h3.5c.3 0 .5.2.5.5s-.2.5-.5.5h-3.5v1.5c0 .3-.2.5-.5.5s-.5-.2-.5-.5v-1.5h-4.5v1.5c0 .3-.2.5-.5.5s-.5-.2-.5-.5v-1.5h-4.5v1.5c0 .3-.2.5-.5.5s-.5-.2-.5-.5v-1.5H5.7c-.3 0-.5-.2-.5-.5s.2-.5.5-.5h3.5v-3H5.7zM26.7 4.1h-3.5V2.6c0-.3-.2-.5-.5-.5h-3c-.3 0-.5.2-.5.5v1.5h-8V2.6c0-.3-.2-.5-.5-.5h-3c-.3 0-.5.2-.5.5v1.5H3.7c-.3 0-.5.2-.5.5v4.5h24V4.6c0-.3-.3-.5-.5-.5zm-16.5 2h-2v-3h2v3zm12 0h-2v-3h2v3z"/><path class="st1" d="M15.7 48.1h4.5v3h-4.5zM10.2 48.1h4.5v3h-4.5zM15.7 44.1h4.5v3h-4.5z"/><path class="st1" d="M3.2 55.6c0 .3.2.5.5.5h23c.3 0 .5-.2.5-.5V40.1h-24v15.5zm2.5-7.5c-.3 0-.5-.2-.5-.5s.2-.5.5-.5h3.5v-3H5.7c-.3 0-.5-.2-.5-.5s.2-.5.5-.5h3.5v-1.5c0-.3.2-.5.5-.5s.5.2.5.5v1.5h4.5v-1.5c0-.3.2-.5.5-.5s.5.2.5.5v1.5h4.5v-1.5c0-.3.2-.5.5-.5s.5.2.5.5v1.5h3.5c.3 0 .5.2.5.5s-.2.5-.5.5h-3.5v3h3.5c.3 0 .5.2.5.5s-.2.5-.5.5h-3.5v3h3.5c.3 0 .5.2.5.5s-.2.5-.5.5h-3.5v1.5c0 .3-.2.5-.5.5s-.5-.2-.5-.5v-1.5h-4.5v1.5c0 .3-.2.5-.5.5s-.5-.2-.5-.5v-1.5h-4.5v1.5c0 .3-.2.5-.5.5s-.5-.2-.5-.5v-1.5H5.7c-.3 0-.5-.2-.5-.5s.2-.5.5-.5h3.5v-3H5.7zM26.7 34.1h-3.5v-1.5c0-.3-.2-.5-.5-.5h-3c-.3 0-.5.2-.5.5v1.5h-8v-1.5c0-.3-.2-.5-.5-.5h-3c-.3 0-.5.2-.5.5v1.5H3.7c-.3 0-.5.2-.5.5v4.5h24v-4.5c0-.3-.3-.5-.5-.5zm-16.5 2h-2v-3h2v3zm12 0h-2v-3h2v3z"/><path class="st2" d="M15.7 78.1h4.5v3h-4.5zM10.2 78.1h4.5v3h-4.5zM15.7 74.1h4.5v3h-4.5z"/><path class="st2" d="M3.2 85.6c0 .3.2.5.5.5h23c.3 0 .5-.2.5-.5V70.1h-24v15.5zm2.5-7.5c-.3 0-.5-.2-.5-.5s.2-.5.5-.5h3.5v-3H5.7c-.3 0-.5-.2-.5-.5s.2-.5.5-.5h3.5v-1.5c0-.3.2-.5.5-.5s.5.2.5.5v1.5h4.5v-1.5c0-.3.2-.5.5-.5s.5.2.5.5v1.5h4.5v-1.5c0-.3.2-.5.5-.5s.5.2.5.5v1.5h3.5c.3 0 .5.2.5.5s-.2.5-.5.5h-3.5v3h3.5c.3 0 .5.2.5.5s-.2.5-.5.5h-3.5v3h3.5c.3 0 .5.2.5.5s-.2.5-.5.5h-3.5v1.5c0 .3-.2.5-.5.5s-.5-.2-.5-.5v-1.5h-4.5v1.5c0 .3-.2.5-.5.5s-.5-.2-.5-.5v-1.5h-4.5v1.5c0 .3-.2.5-.5.5s-.5-.2-.5-.5v-1.5H5.7c-.3 0-.5-.2-.5-.5s.2-.5.5-.5h3.5v-3H5.7zM26.7 64.1h-3.5v-1.5c0-.3-.2-.5-.5-.5h-3c-.3 0-.5.2-.5.5v1.5h-8v-1.5c0-.3-.2-.5-.5-.5h-3c-.3 0-.5.2-.5.5v1.5H3.7c-.3 0-.5.2-.5.5v4.5h24v-4.5c0-.3-.3-.5-.5-.5zm-16.5 2h-2v-3h2v3zm12 0h-2v-3h2v3z"/><path class="st0" d="M44.7 21.3l5.7-5.7-5.7-5.7-5.7 5.7 5.7 5.7zm-2.5-6l2.1-2.1c.2-.2.5-.2.7 0 .2.2.2.5 0 .7L42.9 16c-.2.2-.5.2-.7 0-.2-.2-.2-.6 0-.7zm2.1 2.1l2.1-2.1c.2-.2.5-.2.7 0 .2.2.2.5 0 .7L45 18.1c-.2.2-.5.2-.7 0-.2-.2-.2-.5 0-.7z"/><path class="st0" d="M51.7 5c.2-.2.2-.5 0-.7l-3.2-3.2c-.2-.2-.5-.2-.7 0L31.6 17.4c-.2.2-.2.5 0 .7l3.2 3.2c.2.2.5.2.7 0 1-1 2.6-1 3.5 0 1 1 1 2.6 0 3.5-.2.2-.2.5 0 .7l3.2 3.2c.2.2.5.2.7 0l16.3-16.3c.2-.2.2-.5 0-.7L56 8.5c-.2-.2-.5-.2-.7 0-1 1-2.6 1-3.5 0-1-.9-1-2.5-.1-3.5zm-.3 10.3c.2.2.2.5 0 .7L45 22.3c-.2.2-.5.2-.7 0L37.9 16c-.2-.2-.2-.5 0-.7l6.4-6.4c.2-.2.5-.2.7 0l6.4 6.4zm3.5-.8l-.7.7-.7-.7.7-.7.7.7zm-1.4-1.4l-.7.7-.7-.7.7-.7.7.7zm-1.4-1.4l-.7.7-.7-.7.7-.7.7.7zm-1.4-1.4l-.7.7-.7-.7.7-.7.7.7zm-1.4-1.4l-.7.7-.7-.7.7-.7.7.7zm-1.5-1.4l-.7.7-.7-.7.7-.7.7.7zm-1.4-1.4l-.7.7-.7-.7.7-.7.7.7z"/><path class="st1" d="M44.7 51.3l5.7-5.7-5.7-5.7-5.7 5.7 5.7 5.7zm-2.5-6l2.1-2.1c.2-.2.5-.2.7 0 .2.2.2.5 0 .7L42.9 46c-.2.2-.5.2-.7 0-.2-.2-.2-.6 0-.7zm2.1 2.1l2.1-2.1c.2-.2.5-.2.7 0 .2.2.2.5 0 .7L45 48.1c-.2.2-.5.2-.7 0-.2-.2-.2-.5 0-.7z"/><path class="st1" d="M51.7 35c.2-.2.2-.5 0-.7l-3.2-3.2c-.2-.2-.5-.2-.7 0L31.6 47.4c-.2.2-.2.5 0 .7l3.2 3.2c.2.2.5.2.7 0 1-1 2.6-1 3.5 0 1 1 1 2.6 0 3.5-.2.2-.2.5 0 .7l3.2 3.2c.2.2.5.2.7 0l16.3-16.3c.2-.2.2-.5 0-.7L56 38.5c-.2-.2-.5-.2-.7 0-1 1-2.6 1-3.5 0-1-.9-1-2.5-.1-3.5zm-.3 10.3c.2.2.2.5 0 .7L45 52.3c-.2.2-.5.2-.7 0L37.9 46c-.2-.2-.2-.5 0-.7l6.4-6.4c.2-.2.5-.2.7 0l6.4 6.4zm3.5-.8l-.7.7-.7-.7.7-.7.7.7zm-1.4-1.4l-.7.7-.7-.7.7-.7.7.7zm-1.4-1.4l-.7.7-.7-.7.7-.7.7.7zm-1.4-1.4l-.7.7-.7-.7.7-.7.7.7zm-1.4-1.4l-.7.7-.7-.7.7-.7.7.7zm-1.5-1.4l-.7.7-.7-.7.7-.7.7.7zm-1.4-1.4l-.7.7-.7-.7.7-.7.7.7z"/><path class="st2" d="M44.7 81.3l5.7-5.7-5.7-5.7-5.7 5.7 5.7 5.7zm-2.5-6l2.1-2.1c.2-.2.5-.2.7 0 .2.2.2.5 0 .7L42.9 76c-.2.2-.5.2-.7 0-.2-.2-.2-.6 0-.7zm2.1 2.1l2.1-2.1c.2-.2.5-.2.7 0 .2.2.2.5 0 .7L45 78.1c-.2.2-.5.2-.7 0-.2-.2-.2-.5 0-.7z"/><path class="st2" d="M51.7 65c.2-.2.2-.5 0-.7l-3.2-3.2c-.2-.2-.5-.2-.7 0L31.6 77.4c-.2.2-.2.5 0 .7l3.2 3.2c.2.2.5.2.7 0 1-1 2.6-1 3.5 0 1 1 1 2.6 0 3.5-.2.2-.2.5 0 .7l3.2 3.2c.2.2.5.2.7 0l16.3-16.3c.2-.2.2-.5 0-.7L56 68.5c-.2-.2-.5-.2-.7 0-1 1-2.6 1-3.5 0-1-.9-1-2.5-.1-3.5zm-.3 10.3c.2.2.2.5 0 .7L45 82.3c-.2.2-.5.2-.7 0L37.9 76c-.2-.2-.2-.5 0-.7l6.4-6.4c.2-.2.5-.2.7 0l6.4 6.4zm3.5-.8l-.7.7-.7-.7.7-.7.7.7zm-1.4-1.4l-.7.7-.7-.7.7-.7.7.7zm-1.4-1.4l-.7.7-.7-.7.7-.7.7.7zm-1.4-1.4l-.7.7-.7-.7.7-.7.7.7zm-1.4-1.4l-.7.7-.7-.7.7-.7.7.7zm-1.5-1.4l-.7.7-.7-.7.7-.7.7.7zm-1.4-1.4l-.7.7-.7-.7.7-.7.7.7z"/><path class="st1" d="M76.8 33.2c-4.4 0-8 3.6-8 8 0 4.2 7.3 15.3 7.6 15.8.1.1.2.2.4.2s.3-.1.4-.2c.3-.5 7.6-11.5 7.6-15.8 0-4.4-3.6-8-8-8zm0 11.5c-1.9 0-3.5-1.6-3.5-3.5s1.6-3.5 3.5-3.5 3.5 1.6 3.5 3.5-1.6 3.5-3.5 3.5z"/><path class="st0" d="M76.8 2.2c-4.4 0-8 3.6-8 8 0 4.2 7.3 15.3 7.6 15.8.1.1.2.2.4.2s.3-.1.4-.2c.3-.5 7.6-11.5 7.6-15.8 0-4.4-3.6-8-8-8zm0 11.5c-1.9 0-3.5-1.6-3.5-3.5s1.6-3.5 3.5-3.5 3.5 1.6 3.5 3.5-1.6 3.5-3.5 3.5z"/><path class="st2" d="M76.8 62.2c-4.4 0-8 3.6-8 8 0 4.2 7.3 15.3 7.6 15.8.1.1.2.2.4.2s.3-.1.4-.2c.3-.5 7.6-11.5 7.6-15.8 0-4.4-3.6-8-8-8zm0 11.5c-1.9 0-3.5-1.6-3.5-3.5s1.6-3.5 3.5-3.5 3.5 1.6 3.5 3.5c0 2-1.6 3.5-3.5 3.5z"/><path d="M68.7 2226.3l-4.7-1.7v-2.3c1.4-1.2 2.4-3.1 2.4-5.3v-.2c-.3.1-.7.2-1 .2-1.7 0-2.8-.3-3.8-1.6-.9.9-2.4 1.6-3.7 1.6-.6 0-1.7-.4-2.5-.7v.7c0 2.3 1.1 4.4 2.6 5.5v2.1l-4.7 1.7c-1.4.5-2.3 1.8-2.3 3.3v2.4h20v-2.4c0-1.4-.9-2.8-2.3-3.3z"/><path d="M61.2 2214.4l.4-.8.5.8c.8 1.4 1.7 1.7 3.3 1.7.3 0 .6-.1.9-.2-.5-3-2.7-5.3-5.4-5.3-2.5 0-4.6 2-5.3 4.7.8.4 1.8.8 2.3.8 1.3-.1 2.8-.8 3.3-1.7z"/><path class="st0" d="M113.7 20.3l-4.7-1.7v-2.3c1.4-1.2 2.4-3.1 2.4-5.3v-.2c-.3.1-.7.2-1 .2-1.7 0-2.8-.3-3.8-1.6-.9.9-2.4 1.6-3.7 1.6-.6 0-1.7-.4-2.5-.7v.7c0 2.3 1.1 4.4 2.6 5.5v2.1l-4.7 1.7c-1.4.5-2.3 1.8-2.3 3.3V26h20v-2.4c0-1.5-.9-2.8-2.3-3.3z"/><path class="st0" d="M106.2 8.3l.4-.8.5.8c.8 1.4 1.7 1.7 3.3 1.7.3 0 .6-.1.9-.2-.5-3-2.7-5.3-5.4-5.3-2.5 0-4.6 2-5.3 4.7.8.4 1.8.8 2.3.8 1.3 0 2.8-.8 3.3-1.7zM137.7 4c-1.6 0-3.1 1-4 2.4 1 .4 1.9 1.2 2.6 2.2.7-.3 1.4-.7 1.7-1.2l.4-.7.4.7c.7 1.3 1.5 1.5 2.9 1.5.2 0 .5-.1.8-.2-.4-2.7-2.4-4.7-4.8-4.7z"/><path class="st1" d="M113.7 49.3l-4.7-1.7v-2.3c1.4-1.2 2.4-3.1 2.4-5.3v-.2c-.3.1-.7.2-1 .2-1.7 0-2.8-.3-3.8-1.6-.9.9-2.4 1.6-3.7 1.6-.6 0-1.7-.4-2.5-.7v.7c0 2.3 1.1 4.4 2.6 5.5v2.1l-4.7 1.7c-1.4.5-2.3 1.8-2.3 3.3V55h20v-2.4c0-1.5-.9-2.8-2.3-3.3z"/><path class="st1" d="M106.2 37.3l.4-.8.5.8c.8 1.4 1.7 1.7 3.3 1.7.3 0 .6-.1.9-.2-.5-3-2.7-5.3-5.4-5.3-2.5 0-4.6 2-5.3 4.7.8.4 1.8.8 2.3.8 1.3 0 2.8-.8 3.3-1.7z"/><path class="st2" d="M113.7 80.3l-4.7-1.7v-2.3c1.4-1.2 2.4-3.1 2.4-5.3v-.2c-.3.1-.7.2-1 .2-1.7 0-2.8-.3-3.8-1.6-.9.9-2.4 1.6-3.7 1.6-.6 0-1.7-.4-2.5-.7v.7c0 2.3 1.1 4.4 2.6 5.5v2.1l-4.7 1.7c-1.4.5-2.3 1.8-2.3 3.3V86h20v-2.4c0-1.5-.9-2.8-2.3-3.3z"/><path class="st2" d="M106.2 68.3l.4-.8.5.8c.8 1.4 1.7 1.7 3.3 1.7.3 0 .6-.1.9-.2-.5-3-2.7-5.3-5.4-5.3-2.5 0-4.6 2-5.3 4.7.8.4 1.8.8 2.3.8 1.3 0 2.8-.8 3.3-1.7z"/><path class="st0" d="M171.8 22.3c0-3.3-2.4-6-5.5-6.7 1.6-.6 2.8-2.1 2.8-3.9 0-2.3-1.9-4.1-4.1-4.1-2.3 0-4.1 1.9-4.1 4.1 0 1.8 1.2 3.3 2.8 3.9-3.1.6-5.5 3.4-5.5 6.7v3.3h13.6v-3.3zm-6.8-8c-.7 0-1.2-.5-1.2-1.2s.5-1.2 1.2-1.2 1.2.5 1.2 1.2-.5 1.2-1.2 1.2z"/><path class="st0" d="M159.9 11.1c.2-1.4.9-2.6 2-3.4-.1-2-1.7-3.7-3.8-3.7-2.1 0-3.8 1.7-3.8 3.8 0 1.7 1.1 3 2.6 3.6-2.8.6-5 3.1-5 6.1v3h5.4c.6-2.1 2-3.9 3.9-4.9-1-.9-1.5-2.2-1.5-3.7v-.3l.2-.5zm-1.7-3.3c.6 0 1.1.5 1.1 1.1 0 .6-.5 1.1-1.1 1.1s-1.1-.5-1.1-1.1c0-.6.5-1.1 1.1-1.1zM170.1 11.5v.3c0 1.4-.6 2.7-1.5 3.7 1.9 1 3.4 2.8 3.9 4.9h5.5v-3c0-3-2.1-5.5-5-6.1 1.5-.5 2.6-1.9 2.6-3.6 0-2.1-1.7-3.8-3.8-3.8-2.1 0-3.7 1.6-3.8 3.7 1.1.8 1.8 2 2 3.4l.1.5zm1.7-1.5c-.6 0-1.1-.5-1.1-1.1 0-.6.5-1.1 1.1-1.1s1.1.5 1.1 1.1c0 .6-.5 1.1-1.1 1.1z"/><path class="st1" d="M171.8 52.4c0-3.3-2.4-6-5.5-6.7 1.6-.6 2.8-2.1 2.8-3.9 0-2.3-1.9-4.1-4.1-4.1-2.3 0-4.1 1.9-4.1 4.1 0 1.8 1.2 3.3 2.8 3.9-3.1.6-5.5 3.4-5.5 6.7v3.3h13.6v-3.3zm-6.8-8.1c-.7 0-1.2-.5-1.2-1.2s.5-1.2 1.2-1.2 1.2.5 1.2 1.2c0 .6-.5 1.2-1.2 1.2z"/><path class="st1" d="M159.9 41.1c.2-1.4.9-2.6 2-3.4-.1-2-1.7-3.7-3.8-3.7-2.1 0-3.8 1.7-3.8 3.8 0 1.7 1.1 3 2.6 3.6-2.8.6-5 3.1-5 6.1v3h5.4c.6-2.1 2-3.9 3.9-4.9-1-.9-1.5-2.2-1.5-3.7v-.3l.2-.5zm-1.7-3.3c.6 0 1.1.5 1.1 1.1 0 .6-.5 1.1-1.1 1.1s-1.1-.5-1.1-1.1c0-.6.5-1.1 1.1-1.1zM170.1 41.5v.3c0 1.4-.6 2.7-1.5 3.7 1.9 1 3.4 2.8 3.9 4.9h5.5v-3c0-3-2.1-5.5-5-6.1 1.5-.5 2.6-1.9 2.6-3.6 0-2.1-1.7-3.8-3.8-3.8-2.1 0-3.7 1.6-3.8 3.7 1.1.8 1.8 2 2 3.4l.1.5zm1.7-1.5c-.6 0-1.1-.5-1.1-1.1 0-.6.5-1.1 1.1-1.1s1.1.5 1.1 1.1c0 .6-.5 1.1-1.1 1.1z"/><path class="st2" d="M171.8 82.4c0-3.3-2.4-6-5.5-6.7 1.6-.6 2.8-2.1 2.8-3.9 0-2.3-1.9-4.1-4.1-4.1-2.3 0-4.1 1.9-4.1 4.1 0 1.8 1.2 3.3 2.8 3.9-3.1.6-5.5 3.4-5.5 6.7v3.3h13.6v-3.3zm-6.8-8.1c-.7 0-1.2-.5-1.2-1.2s.5-1.2 1.2-1.2 1.2.5 1.2 1.2-.5 1.2-1.2 1.2z"/><path class="st2" d="M159.9 71.1c.2-1.4.9-2.6 2-3.4-.1-2-1.7-3.7-3.8-3.7-2.1 0-3.8 1.7-3.8 3.8 0 1.7 1.1 3 2.6 3.6-2.8.6-5 3.1-5 6.1v3h5.4c.6-2.1 2-3.9 3.9-4.9-1-.9-1.5-2.2-1.5-3.7v-.3l.2-.5zm-1.7-3.3c.6 0 1.1.5 1.1 1.1 0 .6-.5 1.1-1.1 1.1s-1.1-.5-1.1-1.1c0-.6.5-1.1 1.1-1.1zM170.1 71.5v.3c0 1.4-.6 2.7-1.5 3.7 1.9 1 3.4 2.8 3.9 4.9h5.5v-3c0-3-2.1-5.5-5-6.1 1.5-.5 2.6-1.9 2.6-3.6 0-2.1-1.7-3.8-3.8-3.8-2.1 0-3.7 1.6-3.8 3.7 1.1.8 1.8 2 2 3.4l.1.5zm1.7-1.5c-.6 0-1.1-.5-1.1-1.1 0-.6.5-1.1 1.1-1.1s1.1.5 1.1 1.1c0 .6-.5 1.1-1.1 1.1z"/><path class="st0" d="M192 8.3v11.8h-2.5c-1.9 0-3.5 1.6-3.5 3.5s1.6 3.5 3.5 3.5 3.5-1.6 3.5-3.5V12.5l10-4.1v7.8h-2.5c-1.9 0-3.5 1.6-3.5 3.5s1.6 3.5 3.5 3.5 3.5-1.6 3.5-3.5V3.4l-12 4.9z"/><path class="st1" d="M192 38.3v11.8h-2.5c-1.9 0-3.5 1.6-3.5 3.5s1.6 3.5 3.5 3.5 3.5-1.6 3.5-3.5V42.5l10-4.1v7.8h-2.5c-1.9 0-3.5 1.6-3.5 3.5s1.6 3.5 3.5 3.5 3.5-1.6 3.5-3.5V33.4l-12 4.9z"/><path class="st2" d="M192 68.3v11.8h-2.5c-1.9 0-3.5 1.6-3.5 3.5s1.6 3.5 3.5 3.5 3.5-1.6 3.5-3.5V72.5l10-4.1v7.8h-2.5c-1.9 0-3.5 1.6-3.5 3.5s1.6 3.5 3.5 3.5 3.5-1.6 3.5-3.5V63.4l-12 4.9z"/><path class="st0" d="M226.6 3.6c-4.7 0-9.6 3.1-9.6 8.4 0 .2-.4.9-.7 1.5-.7 1.2-1.5 2.6-1.4 3.7v.1c0 .2 0 .5.2.7.2.3.6.5 1 .5h1c0 1.2.1 3.7 1 4.5.8.8 1.8 1 3.6 1v3c0 .3.2.5.5.5h10c.3 0 .5-.2.5-.5v-5.5c2.7-1.7 4-4.4 4-8-.1-5.5-4.5-9.9-10.1-9.9zm4.1 11.4c0 1-.9 1.9-1.9 1.9-1 0-1.9-.9-1.9-1.9s.9-1.9 1.9-1.9h.4v-2.8l-4.5 1.8v5.1c0 1-.9 1.9-1.9 1.9-1 0-1.9-.9-1.9-1.9s.9-1.9 1.9-1.9h.4v-5l7.5-3.1V15z"/><path class="st1" d="M226.6 33.6c-4.7 0-9.6 3.1-9.6 8.4 0 .2-.4.9-.7 1.5-.7 1.2-1.5 2.6-1.4 3.7v.1c0 .2 0 .5.2.7.2.3.6.5 1 .5h1c0 1.2.1 3.7 1 4.5.8.8 1.8 1 3.6 1v3c0 .3.2.5.5.5h10c.3 0 .5-.2.5-.5v-5.5c2.7-1.7 4-4.4 4-8-.1-5.5-4.5-9.9-10.1-9.9zm4.1 11.4c0 1-.9 1.9-1.9 1.9-1 0-1.9-.9-1.9-1.9s.9-1.9 1.9-1.9h.4v-2.8l-4.5 1.8v5.1c0 1-.9 1.9-1.9 1.9-1 0-1.9-.9-1.9-1.9s.9-1.9 1.9-1.9h.4v-5l7.5-3.1V45z"/><path class="st2" d="M226.6 63.6c-4.7 0-9.6 3.1-9.6 8.4 0 .2-.4.9-.7 1.5-.7 1.2-1.5 2.6-1.4 3.7v.1c0 .2 0 .5.2.7.2.3.6.5 1 .5h1c0 1.2.1 3.7 1 4.5.8.8 1.8 1 3.6 1v3c0 .3.2.5.5.5h10c.3 0 .5-.2.5-.5v-5.5c2.7-1.7 4-4.4 4-8-.1-5.5-4.5-9.9-10.1-9.9zm4.1 11.4c0 1-.9 1.9-1.9 1.9-1 0-1.9-.9-1.9-1.9s.9-1.9 1.9-1.9h.4v-2.8l-4.5 1.8v5.1c0 1-.9 1.9-1.9 1.9-1 0-1.9-.9-1.9-1.9s.9-1.9 1.9-1.9h.4v-5l7.5-3.1V75z"/><path class="st0" d="M262.7 6h-15c-.6 0-1-.4-1-1s.4-1 1-1h15c.6 0 1 .4 1 1s-.4 1-1 1zM262.7 10h-15c-.6 0-1-.4-1-1s.4-1 1-1h15c.6 0 1 .4 1 1s-.4 1-1 1zM261.7 14h-14c-.6 0-1-.4-1-1s.4-1 1-1h14c.6 0 1 .4 1 1s-.4 1-1 1zM255.7 18h-8c-.6 0-1-.4-1-1s.4-1 1-1h8c.6 0 1 .4 1 1s-.4 1-1 1zM255.2 22h-7.5c-.6 0-1-.4-1-1s.4-1 1-1h7.5c.6 0 1 .4 1 1s-.4 1-1 1zM244.7 6h-1c-.6 0-1-.4-1-1s.4-1 1-1h1c.6 0 1 .4 1 1s-.4 1-1 1zM244.7 10h-1c-.6 0-1-.4-1-1s.4-1 1-1h1c.6 0 1 .4 1 1s-.4 1-1 1zM244.7 14h-1c-.6 0-1-.4-1-1s.4-1 1-1h1c.6 0 1 .4 1 1s-.4 1-1 1zM244.7 18h-1c-.6 0-1-.4-1-1s.4-1 1-1h1c.6 0 1 .4 1 1s-.4 1-1 1zM244.7 22h-1c-.6 0-1-.4-1-1s.4-1 1-1h1c.6 0 1 .4 1 1s-.4 1-1 1zM266.5 14.1c-.2-.1-.4-.1-.5 0l-6 4c-.1.1-.2.2-.2.4V23h-1.5c-1.2 0-2.5.7-2.5 2.5s1.3 2.5 2.5 2.5c1 0 2.5 0 2.5-1.5v-7.7l5-3.3V20h-1.5c-1.2 0-2.5.7-2.5 2.5s1.3 2.5 2.5 2.5c1 0 2.5 0 2.5-1.5v-9c-.1-.2-.2-.3-.3-.4z"/><path class="st1" d="M262.7 36h-15c-.6 0-1-.4-1-1s.4-1 1-1h15c.6 0 1 .4 1 1s-.4 1-1 1zM262.7 40h-15c-.6 0-1-.4-1-1s.4-1 1-1h15c.6 0 1 .4 1 1s-.4 1-1 1zM261.7 44h-14c-.6 0-1-.4-1-1s.4-1 1-1h14c.6 0 1 .4 1 1s-.4 1-1 1zM255.7 48h-8c-.6 0-1-.4-1-1s.4-1 1-1h8c.6 0 1 .4 1 1s-.4 1-1 1zM255.2 52h-7.5c-.6 0-1-.4-1-1s.4-1 1-1h7.5c.6 0 1 .4 1 1s-.4 1-1 1zM244.7 36h-1c-.6 0-1-.4-1-1s.4-1 1-1h1c.6 0 1 .4 1 1s-.4 1-1 1zM244.7 40h-1c-.6 0-1-.4-1-1s.4-1 1-1h1c.6 0 1 .4 1 1s-.4 1-1 1zM244.7 44h-1c-.6 0-1-.4-1-1s.4-1 1-1h1c.6 0 1 .4 1 1s-.4 1-1 1zM244.7 48h-1c-.6 0-1-.4-1-1s.4-1 1-1h1c.6 0 1 .4 1 1s-.4 1-1 1zM244.7 52h-1c-.6 0-1-.4-1-1s.4-1 1-1h1c.6 0 1 .4 1 1s-.4 1-1 1zM266.5 44.1c-.2-.1-.4-.1-.5 0l-6 4c-.1.1-.2.2-.2.4V53h-1.5c-1.2 0-2.5.7-2.5 2.5s1.3 2.5 2.5 2.5c1 0 2.5 0 2.5-1.5v-7.7l5-3.3V50h-1.5c-1.2 0-2.5.7-2.5 2.5s1.3 2.5 2.5 2.5c1 0 2.5 0 2.5-1.5v-9c-.1-.2-.2-.3-.3-.4z"/><path class="st2" d="M262.7 66h-15c-.6 0-1-.4-1-1s.4-1 1-1h15c.6 0 1 .4 1 1s-.4 1-1 1zM262.7 70h-15c-.6 0-1-.4-1-1s.4-1 1-1h15c.6 0 1 .4 1 1s-.4 1-1 1zM261.7 74h-14c-.6 0-1-.4-1-1s.4-1 1-1h14c.6 0 1 .4 1 1s-.4 1-1 1zM255.7 78h-8c-.6 0-1-.4-1-1s.4-1 1-1h8c.6 0 1 .4 1 1s-.4 1-1 1zM255.2 82h-7.5c-.6 0-1-.4-1-1s.4-1 1-1h7.5c.6 0 1 .4 1 1s-.4 1-1 1zM244.7 66h-1c-.6 0-1-.4-1-1s.4-1 1-1h1c.6 0 1 .4 1 1s-.4 1-1 1zM244.7 70h-1c-.6 0-1-.4-1-1s.4-1 1-1h1c.6 0 1 .4 1 1s-.4 1-1 1zM244.7 74h-1c-.6 0-1-.4-1-1s.4-1 1-1h1c.6 0 1 .4 1 1s-.4 1-1 1zM244.7 78h-1c-.6 0-1-.4-1-1s.4-1 1-1h1c.6 0 1 .4 1 1s-.4 1-1 1zM244.7 82h-1c-.6 0-1-.4-1-1s.4-1 1-1h1c.6 0 1 .4 1 1s-.4 1-1 1zM266.5 74.1c-.2-.1-.4-.1-.5 0l-6 4c-.1.1-.2.2-.2.4V83h-1.5c-1.2 0-2.5.7-2.5 2.5s1.3 2.5 2.5 2.5c1 0 2.5 0 2.5-1.5v-7.7l5-3.3V80h-1.5c-1.2 0-2.5.7-2.5 2.5s1.3 2.5 2.5 2.5c1 0 2.5 0 2.5-1.5v-9c-.1-.2-.2-.3-.3-.4z"/><g><path class="st0" d="M138.7 21l-4.1-1.5v-2c1.3-1 2.1-2.8 2.1-4.7v-.2c-.3.1-.6.2-.9.2-1.5 0-2.5-.2-3.3-1.4-.8.8-2.1 1.4-3.3 1.4-.6 0-1.5-.4-2.2-.7v.7c0 2.1.9 3.9 2.3 4.9v1.9l-4.1 1.5c-1.2.4-2.1 1.6-2.1 2.9v2h17.7v-2.1c-.1-1.3-.9-2.5-2.1-2.9z"/><path class="st0" d="M132 10.4l.4-.7.4.7c.7 1.3 1.5 1.5 2.9 1.5.2 0 .5-.1.8-.2-.4-2.7-2.4-4.7-4.8-4.7-2.2 0-4.1 1.8-4.7 4.2.7.3 1.6.7 2 .7 1.2-.1 2.6-.8 3-1.5z"/></g><g><path class="st0" d="M144.7 18l-4.1-1.5v-2c1.3-1 2.1-2.8 2.1-4.7v-.2c-.3.1-.6.2-.9.2-1.5 0-2.5-.2-3.3-1.4-.4.4-1 .8-1.6 1 .3.6.5 1.2.6 1.8v.2l.1.8v.5c0 2-.8 3.9-2.1 5.2v.9L139 20c1.3.5 2.3 1.6 2.6 3h5.1v-2.1c0-1.3-.8-2.5-2-2.9z"/></g><g><path class="st1" d="M137.7 34c-1.6 0-3.1 1-4 2.4 1 .4 1.9 1.2 2.6 2.2.7-.3 1.4-.7 1.7-1.2l.4-.7.4.7c.7 1.3 1.5 1.5 2.9 1.5.2 0 .5-.1.8-.2-.4-2.7-2.4-4.7-4.8-4.7z"/></g><g><path class="st1" d="M138.7 51l-4.1-1.5v-2c1.3-1 2.1-2.8 2.1-4.7v-.2c-.3.1-.6.2-.9.2-1.5 0-2.5-.2-3.3-1.4-.8.8-2.1 1.4-3.3 1.4-.6 0-1.5-.4-2.2-.7v.7c0 2.1.9 3.9 2.3 4.9v1.9l-4.1 1.5c-1.2.4-2.1 1.6-2.1 2.9v2h17.7v-2.1c-.1-1.3-.9-2.5-2.1-2.9z"/><path class="st1" d="M132 40.4l.4-.7.4.7c.7 1.3 1.5 1.5 2.9 1.5.2 0 .5-.1.8-.2-.4-2.6-2.4-4.7-4.8-4.7-2.2 0-4.1 1.8-4.7 4.2.7.3 1.6.7 2 .7 1.2-.1 2.6-.8 3-1.5z"/></g><g><path class="st1" d="M144.7 48l-4.1-1.5v-2c1.3-1 2.1-2.8 2.1-4.7v-.2c-.3.1-.6.2-.9.2-1.5 0-2.5-.2-3.3-1.4-.4.4-1 .8-1.6 1 .3.6.5 1.2.6 1.8v.2l.1.8v.5c0 2-.8 3.9-2.1 5.2v.9L139 50c1.3.5 2.3 1.6 2.6 3h5.1v-2.1c0-1.3-.8-2.5-2-2.9z"/></g><g><path class="st2" d="M137.7 64c-1.6 0-3.1 1-4 2.4 1 .4 1.9 1.2 2.6 2.2.7-.3 1.4-.7 1.7-1.2l.4-.7.4.7c.7 1.3 1.5 1.5 2.9 1.5.2 0 .5-.1.8-.2-.4-2.7-2.4-4.7-4.8-4.7z"/></g><g><path class="st2" d="M138.7 81l-4.1-1.5v-2c1.3-1 2.1-2.8 2.1-4.7v-.2c-.3.1-.6.2-.9.2-1.5 0-2.5-.2-3.3-1.4-.8.8-2.1 1.4-3.3 1.4-.6 0-1.5-.4-2.2-.7v.7c0 2.1.9 3.9 2.3 4.9v1.9l-4.1 1.5c-1.2.4-2.1 1.6-2.1 2.9v2h17.7v-2.1c-.1-1.3-.9-2.5-2.1-2.9z"/><path class="st2" d="M132 70.4l.4-.7.4.7c.7 1.3 1.5 1.5 2.9 1.5.2 0 .5-.1.8-.2-.4-2.6-2.4-4.7-4.8-4.7-2.2 0-4.1 1.8-4.7 4.2.7.3 1.6.7 2 .7 1.2-.1 2.6-.8 3-1.5z"/></g><g><path class="st2" d="M144.7 78l-4.1-1.5v-2c1.3-1 2.1-2.8 2.1-4.7v-.2c-.3.1-.6.2-.9.2-1.5 0-2.5-.2-3.3-1.4-.4.4-1 .8-1.6 1 .3.6.5 1.2.6 1.8v.2l.1.8v.5c0 2-.8 3.9-2.1 5.2v.9L139 80c1.3.5 2.3 1.6 2.6 3h5.1v-2.1c0-1.3-.8-2.5-2-2.9z"/></g><path class="st0" d="M294.5 20.4c-.2-3.4-3-6-6.5-6h-2.5v-6c1.4-.2 2.5-1.5 2.5-3 0-1.7-1.3-3-3-3s-3 1.3-3 3c0 1.5 1.1 2.7 2.5 3v6H282c-3.4 0-6.2 2.7-6.5 6-1.4.2-2.5 1.5-2.5 3 0 1.7 1.3 3 3 3s3-1.3 3-3c0-1.5-1.1-2.7-2.5-3 .2-2.8 2.6-5 5.5-5h2.5v5c-1.4.2-2.5 1.5-2.5 3 0 1.7 1.3 3 3 3s3-1.3 3-3c0-1.5-1.1-2.7-2.5-3v-5h2.5c2.9 0 5.2 2.2 5.5 5-1.4.2-2.5 1.5-2.5 3 0 1.7 1.3 3 3 3s3-1.3 3-3c0-1.5-1.1-2.7-2.5-3z"/><path class="st1" d="M294.5 50.4c-.2-3.4-3-6-6.5-6h-2.5v-6c1.4-.2 2.5-1.5 2.5-3 0-1.7-1.3-3-3-3s-3 1.3-3 3c0 1.5 1.1 2.7 2.5 3v6H282c-3.4 0-6.2 2.7-6.5 6-1.4.2-2.5 1.5-2.5 3 0 1.7 1.3 3 3 3s3-1.3 3-3c0-1.5-1.1-2.7-2.5-3 .2-2.8 2.6-5 5.5-5h2.5v5c-1.4.2-2.5 1.5-2.5 3 0 1.7 1.3 3 3 3s3-1.3 3-3c0-1.5-1.1-2.7-2.5-3v-5h2.5c2.9 0 5.2 2.2 5.5 5-1.4.2-2.5 1.5-2.5 3 0 1.7 1.3 3 3 3s3-1.3 3-3c0-1.5-1.1-2.7-2.5-3z"/><path class="st2" d="M294.5 80.4c-.2-3.4-3-6-6.5-6h-2.5v-6c1.4-.2 2.5-1.5 2.5-3 0-1.7-1.3-3-3-3s-3 1.3-3 3c0 1.5 1.1 2.7 2.5 3v6H282c-3.4 0-6.2 2.7-6.5 6-1.4.2-2.5 1.5-2.5 3 0 1.7 1.3 3 3 3s3-1.3 3-3c0-1.5-1.1-2.7-2.5-3 .2-2.8 2.6-5 5.5-5h2.5v5c-1.4.2-2.5 1.5-2.5 3 0 1.7 1.3 3 3 3s3-1.3 3-3c0-1.5-1.1-2.7-2.5-3v-5h2.5c2.9 0 5.2 2.2 5.5 5-1.4.2-2.5 1.5-2.5 3 0 1.7 1.3 3 3 3s3-1.3 3-3c0-1.5-1.1-2.7-2.5-3z"/><g><path class="st0" d="M303.6 26.2c0 .1 0 .3.1.4.1.1.2.2.4.2h13.1c.1 0 .3-.1.4-.2.1-.1.1-.2.1-.4-.2-3.1-1.9-4.8-5.1-5.4v-1.1h.5c.3 0 .5-.2.5-.5v-2c0-.3-.2-.5-.5-.5h-5c-.3 0-.5.2-.5.5v2c0 .3.2.5.5.5h.5v1.1c-3.1.5-4.7 2.3-5 5.4zM326.9 3.1c-.2-.2-.5-.2-.7 0l-2.6 2.6V3.2c0-.2-.1-.3-.2-.4-.1-.1-.3-.1-.5 0-1.1.5-2.7 1.6-4.3 3.2-3 3-4.3 6.3-3.3 8l-1.3 1.3c-.2.2-.2.5 0 .7.2.2.5.2.7 0l1.3-1.3c.5.3 1.1.5 1.8.5 1.7 0 3.8-.9 5.6-2.6.2-.1.2-.4.1-.6-.1-.2-.3-.3-.5-.3h-4l1-1h4.6c.3 0 .5-.2.5-.5s-.2-.5-.5-.5H321l1-1h4.1c.2 0 .3-.1.4-.3 1.3-2.2 1.4-4.1.4-5.3 0 .1 0 .1 0 0z"/></g><g><path class="st1" d="M303.6 56.2c0 .1 0 .3.1.4.1.1.2.2.4.2h13.1c.1 0 .3-.1.4-.2.1-.1.1-.2.1-.4-.2-3.1-1.9-4.8-5.1-5.4v-1.1h.5c.3 0 .5-.2.5-.5v-2c0-.3-.2-.5-.5-.5h-5c-.3 0-.5.2-.5.5v2c0 .3.2.5.5.5h.5v1.1c-3.1.5-4.7 2.3-5 5.4zM326.9 33.1c-.2-.2-.5-.2-.7 0l-2.6 2.6v-2.5c0-.2-.1-.3-.2-.4-.1-.1-.3-.1-.5 0-1.1.5-2.7 1.6-4.3 3.2-3 3-4.3 6.3-3.3 8l-1.3 1.3c-.2.2-.2.5 0 .7.2.2.5.2.7 0l1.3-1.3c.5.3 1.1.5 1.8.5 1.7 0 3.8-.9 5.6-2.6.2-.1.2-.4.1-.6-.1-.2-.3-.3-.5-.3h-4l1-1h4.6c.3 0 .5-.2.5-.5s-.2-.5-.5-.5H321l1-1h4.1c.2 0 .3-.1.4-.3 1.3-2.2 1.4-4.1.4-5.3 0 .1 0 .1 0 0z"/></g><g><path class="st2" d="M303.6 86.2c0 .1 0 .3.1.4.1.1.2.2.4.2h13.1c.1 0 .3-.1.4-.2.1-.1.1-.2.1-.4-.2-3.1-1.9-4.8-5.1-5.4v-1.1h.5c.3 0 .5-.2.5-.5v-2c0-.3-.2-.5-.5-.5h-5c-.3 0-.5.2-.5.5v2c0 .3.2.5.5.5h.5v1.1c-3.1.5-4.7 2.3-5 5.4zM326.9 63.1c-.2-.2-.5-.2-.7 0l-2.6 2.6v-2.5c0-.2-.1-.3-.2-.4-.1-.1-.3-.1-.5 0-1.1.5-2.7 1.6-4.3 3.2-3 3-4.3 6.3-3.3 8l-1.3 1.3c-.2.2-.2.5 0 .7.2.2.5.2.7 0l1.3-1.3c.5.3 1.1.5 1.8.5 1.7 0 3.8-.9 5.6-2.6.2-.1.2-.4.1-.6-.1-.2-.3-.3-.5-.3h-4l1-1h4.6c.3 0 .5-.2.5-.5s-.2-.5-.5-.5H321l1-1h4.1c.2 0 .3-.1.4-.3 1.3-2.2 1.4-4.1.4-5.3 0 .1 0 .1 0 0z"/></g><g><path class="st0" d="M345.8 23.8c-2 0-3.8-.7-5.3-1.8l-3.1 3.1c-.4.4-1 .4-1.4 0-.4-.4-.4-1 0-1.4l3.1-3.1c-1.1-1.4-1.8-3.3-1.8-5.3 0-4.7 3.8-8.5 8.5-8.5s8.5 3.8 8.5 8.5-3.8 8.5-8.5 8.5zm3.5-9h-3v-3c0-.3-.2-.5-.5-.5s-.5.2-.5.5v3h-3c-.3 0-.5.2-.5.5s.2.5.5.5h3v3c0 .3.2.5.5.5s.5-.2.5-.5v-3h3c.3 0 .5-.2.5-.5s-.3-.5-.5-.5z"/></g><g><path class="st1" d="M345.8 53.8c-2 0-3.8-.7-5.3-1.8l-3.1 3.1c-.4.4-1 .4-1.4 0-.4-.4-.4-1 0-1.4l3.1-3.1c-1.1-1.4-1.8-3.3-1.8-5.3 0-4.7 3.8-8.5 8.5-8.5s8.5 3.8 8.5 8.5-3.8 8.5-8.5 8.5zm3.5-9h-3v-3c0-.3-.2-.5-.5-.5s-.5.2-.5.5v3h-3c-.3 0-.5.2-.5.5s.2.5.5.5h3v3c0 .3.2.5.5.5s.5-.2.5-.5v-3h3c.3 0 .5-.2.5-.5s-.3-.5-.5-.5z"/></g><g><path class="st2" d="M345.8 83.8c-2 0-3.8-.7-5.3-1.8l-3.1 3.1c-.4.4-1 .4-1.4 0-.4-.4-.4-1 0-1.4l3.1-3.1c-1.1-1.4-1.8-3.3-1.8-5.3 0-4.7 3.8-8.5 8.5-8.5s8.5 3.8 8.5 8.5-3.8 8.5-8.5 8.5zm3.5-9h-3v-3c0-.3-.2-.5-.5-.5s-.5.2-.5.5v3h-3c-.3 0-.5.2-.5.5s.2.5.5.5h3v3c0 .3.2.5.5.5s.5-.2.5-.5v-3h3c.3 0 .5-.2.5-.5s-.3-.5-.5-.5z"/></g><g><path class="st0" d="M378.2 26.8H366c-1.6 0-2.9-1.3-2.9-2.9v-9.2c0-1.6 1.3-2.9 2.9-2.9.7 0 1.2.6 1.2 1.2s-.6 1.2-1.2 1.2c-.2 0-.4.2-.4.4v9.2c0 .2.2.4.4.4h12.2c.2 0 .4-.2.4-.4 0-.7.6-1.2 1.2-1.2s1.2.6 1.2 1.2c.1 1.7-1.2 3-2.8 3z"/></g><g><path class="st0" d="M384 20.5h-12.2c-1.6 0-2.9-1.3-2.9-2.9V8.4c0-1.6 1.3-2.9 2.9-2.9H384c1.6 0 2.9 1.3 2.9 2.9v9.2c0 1.5-1.3 2.9-2.9 2.9zM371.8 8c-.2 0-.4.2-.4.4v9.2c0 .2.2.4.4.4H384c.2 0 .4-.2.4-.4V8.4c0-.2-.2-.4-.4-.4h-12.2z"/></g><g><path class="st1" d="M378.2 56.8H366c-1.6 0-2.9-1.3-2.9-2.9v-9.2c0-1.6 1.3-2.9 2.9-2.9.7 0 1.2.6 1.2 1.2s-.6 1.2-1.2 1.2c-.2 0-.4.2-.4.4v9.2c0 .2.2.4.4.4h12.2c.2 0 .4-.2.4-.4 0-.7.6-1.2 1.2-1.2s1.2.6 1.2 1.2c.1 1.7-1.2 3-2.8 3z"/></g><g><path class="st1" d="M384 50.5h-12.2c-1.6 0-2.9-1.3-2.9-2.9v-9.2c0-1.6 1.3-2.9 2.9-2.9H384c1.6 0 2.9 1.3 2.9 2.9v9.2c0 1.6-1.3 2.9-2.9 2.9zM371.8 38c-.2 0-.4.2-.4.4v9.2c0 .2.2.4.4.4H384c.2 0 .4-.2.4-.4v-9.2c0-.2-.2-.4-.4-.4h-12.2z"/></g><g><path class="st2" d="M378.2 86.8H366c-1.6 0-2.9-1.3-2.9-2.9v-9.2c0-1.6 1.3-2.9 2.9-2.9.7 0 1.2.6 1.2 1.2s-.6 1.2-1.2 1.2c-.2 0-.4.2-.4.4v9.2c0 .2.2.4.4.4h12.2c.2 0 .4-.2.4-.4 0-.7.6-1.2 1.2-1.2s1.2.6 1.2 1.2c.1 1.7-1.2 3-2.8 3z"/></g><g><path class="st2" d="M384 80.5h-12.2c-1.6 0-2.9-1.3-2.9-2.9v-9.2c0-1.6 1.3-2.9 2.9-2.9H384c1.6 0 2.9 1.3 2.9 2.9v9.2c0 1.6-1.3 2.9-2.9 2.9zM371.8 68c-.2 0-.4.2-.4.4v9.2c0 .2.2.4.4.4H384c.2 0 .4-.2.4-.4v-9.2c0-.2-.2-.4-.4-.4h-12.2z"/></g><g><path class="st0" d="M412.6 10.3h-1v-.8c0-3.3-2.7-6-6-6s-6 2.7-6 6v.9h-1c-2.8 0-5 2.2-5 5v4c3 0 6 3 6 6h12c0-3 3-6 6-6v-4c0-2.8-2.2-5.1-5-5.1zm-7-4.8c2.2 0 4 1.8 4 4v.9h-8v-.9c0-2.2 1.8-4 4-4zm-7 12.8c0 .3-.2.5-.5.5s-.5-.2-.5-.5v-1c0-.3.2-.5.5-.5s.5.2.5.5v1zm16.5-2h-19c-.3 0-.5-.2-.5-.5s.2-.5.5-.5h19c.3 0 .5.2.5.5s-.2.5-.5.5z"/><path class="st0" d="M412.6 25.3h1.5c1.9 0 3.5-1.6 3.5-3.5v-1.5c-2.4 0-5 2.5-5 5zM393.6 20.3v1.5c0 1.9 1.6 3.5 3.5 3.5h1.5c0-2.5-2.5-5-5-5z"/></g><g><path class="st1" d="M412.6 40.3h-1v-.9c0-3.3-2.7-6-6-6s-6 2.7-6 6v.9h-1c-2.8 0-5 2.2-5 5v4c3 0 6 3 6 6h12c0-3 3-6 6-6v-4c0-2.7-2.2-5-5-5zm-7-4.8c2.2 0 4 1.8 4 4v.9h-8v-.9c0-2.2 1.8-4 4-4zm-7 12.8c0 .3-.2.5-.5.5s-.5-.2-.5-.5v-1c0-.3.2-.5.5-.5s.5.2.5.5v1zm16.5-2h-19c-.3 0-.5-.2-.5-.5s.2-.5.5-.5h19c.3 0 .5.2.5.5s-.2.5-.5.5z"/><path class="st1" d="M412.6 55.3h1.5c1.9 0 3.5-1.6 3.5-3.5v-1.5c-2.4 0-5 2.5-5 5zM393.6 50.3v1.5c0 1.9 1.6 3.5 3.5 3.5h1.5c0-2.5-2.5-5-5-5z"/></g><g><path class="st2" d="M412.6 70.3h-1v-.9c0-3.3-2.7-6-6-6s-6 2.7-6 6v.9h-1c-2.8 0-5 2.2-5 5v4c3 0 6 3 6 6h12c0-3 3-6 6-6v-4c0-2.7-2.2-5-5-5zm-7-4.8c2.2 0 4 1.8 4 4v.9h-8v-.9c0-2.2 1.8-4 4-4zm-7 12.8c0 .3-.2.5-.5.5s-.5-.2-.5-.5v-1c0-.3.2-.5.5-.5s.5.2.5.5v1zm16.5-2h-19c-.3 0-.5-.2-.5-.5s.2-.5.5-.5h19c.3 0 .5.2.5.5s-.2.5-.5.5z"/><path class="st2" d="M412.6 85.3h1.5c1.9 0 3.5-1.6 3.5-3.5v-1.5c-2.4 0-5 2.5-5 5zM393.6 80.3v1.5c0 1.9 1.6 3.5 3.5 3.5h1.5c0-2.5-2.5-5-5-5z"/></g><path class="st0" d="M445.8 14.3h-9.1l4.2-7.5c.3-.5.1-1.1-.4-1.4-.5-.3-1.1-.1-1.4.4l-4.1 7.4-4.1-7.4c-.3-.5-.9-.7-1.4-.4-.5.3-.7.9-.4 1.4l4.2 7.5h-9.1c-.6 0-1 .4-1 1s.4 1 1 1h9.1l-4.2 7.5c-.3.5-.1 1.1.4 1.4.2.1.3.1.5.1.4 0 .7-.2.9-.5l4.1-7.4 4.1 7.4c.2.3.5.5.9.5.2 0 .3 0 .5-.1.5-.3.7-.9.4-1.4l-4.2-7.5h9.1c.6 0 1-.4 1-1s-.5-1-1-1z"/><path class="st1" d="M445.8 44.3h-9.1l4.2-7.5c.3-.5.1-1.1-.4-1.4-.5-.3-1.1-.1-1.4.4l-4.1 7.4-4.1-7.4c-.3-.5-.9-.7-1.4-.4-.5.3-.7.9-.4 1.4l4.2 7.5h-9.1c-.6 0-1 .4-1 1s.4 1 1 1h9.1l-4.2 7.5c-.3.5-.1 1.1.4 1.4.2.1.3.1.5.1.4 0 .7-.2.9-.5l4.1-7.4 4.1 7.4c.2.3.5.5.9.5.2 0 .3 0 .5-.1.5-.3.7-.9.4-1.4l-4.2-7.5h9.1c.6 0 1-.4 1-1s-.5-1-1-1z"/><path class="st2" d="M445.8 74.3h-9.1l4.2-7.5c.3-.5.1-1.1-.4-1.4-.5-.3-1.1-.1-1.4.4l-4.1 7.4-4.1-7.4c-.3-.5-.9-.7-1.4-.4-.5.3-.7.9-.4 1.4l4.2 7.5h-9.1c-.6 0-1 .4-1 1s.4 1 1 1h9.1l-4.2 7.5c-.3.5-.1 1.1.4 1.4.2.1.3.1.5.1.4 0 .7-.2.9-.5l4.1-7.4 4.1 7.4c.2.3.5.5.9.5.2 0 .3 0 .5-.1.5-.3.7-.9.4-1.4l-4.2-7.5h9.1c.6 0 1-.4 1-1s-.5-1-1-1z"/><path class="st0" d="M475.8 10.5l-5-7c-.1-.1-.2-.2-.4-.2h-7c-.2 0-.3.1-.4.2l-5 7c-.1.1-.1.3-.1.4l4 16c.1.2.3.4.5.4h9c.2 0 .4-.2.5-.4l4-16c0-.2 0-.3-.1-.4zm-4.4 2.3c0 .3-.2.5-.5.5h-2.5v8.5c0 .3-.2.5-.5.5h-2c-.3 0-.5-.2-.5-.5v-8.5h-2.5c-.3 0-.5-.2-.5-.5v-2c0-.3.2-.5.5-.5h2.5V7.8c0-.3.2-.5.5-.5h2c.3 0 .5.2.5.5v2.5h2.5c.3 0 .5.2.5.5v2z"/><path class="st1" d="M475.8 40.5l-5-7c-.1-.1-.2-.2-.4-.2h-7c-.2 0-.3.1-.4.2l-5 7c-.1.1-.1.3-.1.4l4 16c.1.2.3.4.5.4h9c.2 0 .4-.2.5-.4l4-16c0-.2 0-.3-.1-.4zm-4.4 2.3c0 .3-.2.5-.5.5h-2.5v8.5c0 .3-.2.5-.5.5h-2c-.3 0-.5-.2-.5-.5v-8.5h-2.5c-.3 0-.5-.2-.5-.5v-2c0-.3.2-.5.5-.5h2.5v-2.5c0-.3.2-.5.5-.5h2c.3 0 .5.2.5.5v2.5h2.5c.3 0 .5.2.5.5v2z"/><path class="st2" d="M475.8 70.5l-5-7c-.1-.1-.2-.2-.4-.2h-7c-.2 0-.3.1-.4.2l-5 7c-.1.1-.1.3-.1.4l4 16c.1.2.3.4.5.4h9c.2 0 .4-.2.5-.4l4-16c0-.2 0-.3-.1-.4zm-4.4 2.3c0 .3-.2.5-.5.5h-2.5v8.5c0 .3-.2.5-.5.5h-2c-.3 0-.5-.2-.5-.5v-8.5h-2.5c-.3 0-.5-.2-.5-.5v-2c0-.3.2-.5.5-.5h2.5v-2.5c0-.3.2-.5.5-.5h2c.3 0 .5.2.5.5v2.5h2.5c.3 0 .5.2.5.5v2z"/><path class="st0" d="M536.9 26.2l-3.5-12c-.1-.2-.3-.4-.5-.4h-3.5l1 9.3v.3c-.3-.3-.6-.5-1-.6L528 10c1.5-.7 2.4-2 2.4-3.3 0-2.2-2.5-4-5.5-4s-5.5 1.8-5.5 4c0 1.3.9 2.5 2.4 3.3l-1.4 12.8c-.4.1-.8.3-1 .6v-.3l1-9.3h-3.5c-.2 0-.4.1-.5.4l-3.5 12c0 .2 0 .3.1.4.1.1.2.2.4.2h6c.3 0 .5-.2.5-.5v-1.5c0-.6.4-1 1-1s1 .4 1 1v1.5c0 .3.2.5.5.5h5c.3 0 .5-.2.5-.5v-1.5c0-.6.4-1 1-1s1 .4 1 1v1.5c0 .3.2.5.5.5h6c.2 0 .3-.1.4-.2.1-.1.2-.2.1-.4zm-9.4-2.7l-1-9.7h-3l-1 9.7c-.2-.3-.6-.5-.9-.6l1.4-13c0-.2-.1-.4-.3-.5-1.3-.6-2.1-1.5-2.1-2.5 0-1.7 2-3 4.5-3s4.5 1.3 4.5 3c0 1-.8 2-2.1 2.5-.2.1-.3.3-.3.5l1.4 13c-.6.2-.9.4-1.1.6z"/><path class="st1" d="M536.9 56.2l-3.5-12c-.1-.2-.3-.4-.5-.4h-3.5l1 9.3v.3c-.3-.3-.6-.5-1-.6L528 40c1.5-.7 2.4-2 2.4-3.3 0-2.2-2.5-4-5.5-4s-5.5 1.8-5.5 4c0 1.3.9 2.5 2.4 3.3l-1.4 12.8c-.4.1-.8.3-1 .6v-.3l1-9.3h-3.5c-.2 0-.4.1-.5.4l-3.5 12c0 .2 0 .3.1.4.1.1.2.2.4.2h6c.3 0 .5-.2.5-.5v-1.5c0-.6.4-1 1-1s1 .4 1 1v1.5c0 .3.2.5.5.5h5c.3 0 .5-.2.5-.5v-1.5c0-.6.4-1 1-1s1 .4 1 1v1.5c0 .3.2.5.5.5h6c.2 0 .3-.1.4-.2.1-.1.2-.2.1-.4zm-9.4-2.7l-1-9.7h-3l-1 9.7c-.2-.3-.6-.5-.9-.6l1.4-13c0-.2-.1-.4-.3-.5-1.3-.6-2.1-1.5-2.1-2.5 0-1.7 2-3 4.5-3s4.5 1.3 4.5 3c0 1-.8 2-2.1 2.5-.2.1-.3.3-.3.5l1.4 13c-.6.2-.9.4-1.1.6z"/><path class="st2" d="M536.9 86.2l-3.5-12c-.1-.2-.3-.4-.5-.4h-3.5l1 9.3v.3c-.3-.3-.6-.5-1-.6L528 70c1.5-.7 2.4-2 2.4-3.3 0-2.2-2.5-4-5.5-4s-5.5 1.8-5.5 4c0 1.3.9 2.5 2.4 3.3l-1.4 12.8c-.4.1-.8.3-1 .6v-.3l1-9.3h-3.5c-.2 0-.4.1-.5.4l-3.5 12c0 .2 0 .3.1.4.1.1.2.2.4.2h6c.3 0 .5-.2.5-.5v-1.5c0-.6.4-1 1-1s1 .4 1 1v1.5c0 .3.2.5.5.5h5c.3 0 .5-.2.5-.5v-1.5c0-.6.4-1 1-1s1 .4 1 1v1.5c0 .3.2.5.5.5h6c.2 0 .3-.1.4-.2.1-.1.2-.2.1-.4zm-9.4-2.7l-1-9.7h-3l-1 9.7c-.2-.3-.6-.5-.9-.6l1.4-13c0-.2-.1-.4-.3-.5-1.3-.6-2.1-1.5-2.1-2.5 0-1.7 2-3 4.5-3s4.5 1.3 4.5 3c0 1-.8 2-2.1 2.5-.2.1-.3.3-.3.5l1.4 13c-.6.2-.9.4-1.1.6z"/><g><path class="st0" d="M488 22c0-1.1.4-2 1-2.8V7.8c.2.2.4.4.7.6 4.2 2.8 2.7 6.5 2.1 8.1 0 0 0 .1-.4 1.2.4-.1.7-.2 1.1-.2l.2-.6c.6-1.5 2.3-6.1-2.5-9.3-1.2-.8-1.3-2-1.3-2.1V5h-1v13.5h-2.5c-1.9 0-3.5 1.6-3.5 3.5s1.6 3.5 3.5 3.5c1.2 0 2.3-.7 2.9-1.6-.1-.6-.3-1.2-.3-1.9zM504.3 7.6c-1.2-.8-1.3-2-1.3-2.1V5h-1v13.5h-2.5c-1.9 0-3.5 1.6-3.5 3.5s1.6 3.5 3.5 3.5 3.5-1.6 3.5-3.5V7.8c.2.2.4.4.7.6 4.2 2.8 2.7 6.5 2.1 8.1 0 0-.1.2-.7 1.8-.1.3 0 .5.3.6.3.1.5 0 .6-.3.6-1.7.7-1.8.7-1.8.6-1.4 2.4-6-2.4-9.2z"/><path class="st0" d="M495 22c0-1.1.4-2 1-2.8V7.8c.2.2.4.4.7.6 4.2 2.8 2.7 6.5 2.1 8.1 0 0 0 .1-.4 1.2.4-.1.7-.2 1.1-.2l.2-.6c.6-1.5 2.3-6.1-2.5-9.3-1.2-.8-1.3-2-1.3-2.1V5h-1v13.5h-2.5c-1.9 0-3.5 1.6-3.5 3.5s1.6 3.5 3.5 3.5c1.2 0 2.3-.7 2.9-1.6-.1-.6-.3-1.2-.3-1.9z"/></g><g><path class="st1" d="M488 52c0-1.1.4-2 1-2.8V37.8c.2.2.4.4.7.6 4.2 2.8 2.7 6.5 2.1 8.1 0 0 0 .1-.4 1.2.4-.1.7-.2 1.1-.2l.2-.6c.6-1.5 2.3-6.1-2.5-9.3-1.2-.8-1.3-2-1.3-2.1V35h-1v13.5h-2.5c-1.9 0-3.5 1.6-3.5 3.5s1.6 3.5 3.5 3.5c1.2 0 2.3-.7 2.9-1.6-.1-.6-.3-1.2-.3-1.9zM504.3 37.6c-1.2-.8-1.3-2-1.3-2.1V35h-1v13.5h-2.5c-1.9 0-3.5 1.6-3.5 3.5s1.6 3.5 3.5 3.5 3.5-1.6 3.5-3.5V37.8c.2.2.4.4.7.6 4.2 2.8 2.7 6.5 2.1 8.1 0 0-.1.2-.7 1.8-.1.3 0 .5.3.6.3.1.5 0 .6-.3.6-1.7.7-1.8.7-1.8.6-1.4 2.4-6-2.4-9.2z"/><path class="st1" d="M495 52c0-1.1.4-2 1-2.8V37.8c.2.2.4.4.7.6 4.2 2.8 2.7 6.5 2.1 8.1 0 0 0 .1-.4 1.2.4-.1.7-.2 1.1-.2l.2-.6c.6-1.5 2.3-6.1-2.5-9.3-1.2-.8-1.3-2-1.3-2.1V35h-1v13.5h-2.5c-1.9 0-3.5 1.6-3.5 3.5s1.6 3.5 3.5 3.5c1.2 0 2.3-.7 2.9-1.6-.1-.6-.3-1.2-.3-1.9z"/></g><g><path class="st2" d="M488 82c0-1.1.4-2 1-2.8V67.8c.2.2.4.4.7.6 4.2 2.8 2.7 6.5 2.1 8.1 0 0 0 .1-.4 1.2.4-.1.7-.2 1.1-.2l.2-.6c.6-1.5 2.3-6.1-2.5-9.3-1.2-.8-1.3-2-1.3-2.1V65h-1v13.5h-2.5c-1.9 0-3.5 1.6-3.5 3.5s1.6 3.5 3.5 3.5c1.2 0 2.3-.7 2.9-1.6-.1-.6-.3-1.2-.3-1.9zM504.3 67.6c-1.2-.8-1.3-2-1.3-2.1V65h-1v13.5h-2.5c-1.9 0-3.5 1.6-3.5 3.5s1.6 3.5 3.5 3.5 3.5-1.6 3.5-3.5V67.8c.2.2.4.4.7.6 4.2 2.8 2.7 6.5 2.1 8.1 0 0-.1.2-.7 1.8-.1.3 0 .5.3.6.3.1.5 0 .6-.3.6-1.7.7-1.8.7-1.8.6-1.4 2.4-6-2.4-9.2z"/><path class="st2" d="M495 82c0-1.1.4-2 1-2.8V67.8c.2.2.4.4.7.6 4.2 2.8 2.7 6.5 2.1 8.1 0 0 0 .1-.4 1.2.4-.1.7-.2 1.1-.2l.2-.6c.6-1.5 2.3-6.1-2.5-9.3-1.2-.8-1.3-2-1.3-2.1V65h-1v13.5h-2.5c-1.9 0-3.5 1.6-3.5 3.5s1.6 3.5 3.5 3.5c1.2 0 2.3-.7 2.9-1.6-.1-.6-.3-1.2-.3-1.9z"/></g><g><path class="st0" d="M551.3 25.8c-.3 0-.5-.2-.5-.5v-18c0-.3.2-.5.5-.5s.5.2.5.5v18c0 .2-.2.5-.5.5zM554.3 26.8c-.3 0-.5-.2-.5-.5v-22c0-.3.2-.5.5-.5s.5.2.5.5v22c0 .2-.2.5-.5.5zM557.3 24.8c-.3 0-.5-.2-.5-.5v-18c0-.3.2-.5.5-.5s.5.2.5.5v18c0 .2-.2.5-.5.5zM560.3 21.8c-.3 0-.5-.2-.5-.5v-10c0-.3.2-.5.5-.5s.5.2.5.5v10c0 .2-.2.5-.5.5zM548.3 21.8c-.3 0-.5-.2-.5-.5v-10c0-.3.2-.5.5-.5s.5.2.5.5v10c0 .2-.2.5-.5.5zM563.3 20.8c-.3 0-.5-.2-.5-.5v-8c0-.3.2-.5.5-.5s.5.2.5.5v8c0 .2-.2.5-.5.5zM545.3 20.8c-.3 0-.5-.2-.5-.5v-8c0-.3.2-.5.5-.5s.5.2.5.5v8c0 .2-.2.5-.5.5zM543.3 17.8c-.3 0-.5-.2-.5-.5v-2c0-.3.2-.5.5-.5s.5.2.5.5v2c0 .2-.2.5-.5.5zM565.3 17.8c-.3 0-.5-.2-.5-.5v-2c0-.3.2-.5.5-.5s.5.2.5.5v2c0 .2-.2.5-.5.5z"/></g><g><path class="st1" d="M551.3 55.8c-.3 0-.5-.2-.5-.5v-18c0-.3.2-.5.5-.5s.5.2.5.5v18c0 .2-.2.5-.5.5zM554.3 56.8c-.3 0-.5-.2-.5-.5v-22c0-.3.2-.5.5-.5s.5.2.5.5v22c0 .2-.2.5-.5.5zM557.3 54.8c-.3 0-.5-.2-.5-.5v-18c0-.3.2-.5.5-.5s.5.2.5.5v18c0 .2-.2.5-.5.5zM560.3 51.8c-.3 0-.5-.2-.5-.5v-10c0-.3.2-.5.5-.5s.5.2.5.5v10c0 .2-.2.5-.5.5zM548.3 51.8c-.3 0-.5-.2-.5-.5v-10c0-.3.2-.5.5-.5s.5.2.5.5v10c0 .2-.2.5-.5.5zM563.3 50.8c-.3 0-.5-.2-.5-.5v-8c0-.3.2-.5.5-.5s.5.2.5.5v8c0 .2-.2.5-.5.5zM545.3 50.8c-.3 0-.5-.2-.5-.5v-8c0-.3.2-.5.5-.5s.5.2.5.5v8c0 .2-.2.5-.5.5zM543.3 47.8c-.3 0-.5-.2-.5-.5v-2c0-.3.2-.5.5-.5s.5.2.5.5v2c0 .2-.2.5-.5.5zM565.3 47.8c-.3 0-.5-.2-.5-.5v-2c0-.3.2-.5.5-.5s.5.2.5.5v2c0 .2-.2.5-.5.5z"/></g><g><path class="st2" d="M551.3 85.8c-.3 0-.5-.2-.5-.5v-18c0-.3.2-.5.5-.5s.5.2.5.5v18c0 .2-.2.5-.5.5zM554.3 86.8c-.3 0-.5-.2-.5-.5v-22c0-.3.2-.5.5-.5s.5.2.5.5v22c0 .2-.2.5-.5.5zM557.3 84.8c-.3 0-.5-.2-.5-.5v-18c0-.3.2-.5.5-.5s.5.2.5.5v18c0 .2-.2.5-.5.5zM560.3 81.8c-.3 0-.5-.2-.5-.5v-10c0-.3.2-.5.5-.5s.5.2.5.5v10c0 .2-.2.5-.5.5zM548.3 81.8c-.3 0-.5-.2-.5-.5v-10c0-.3.2-.5.5-.5s.5.2.5.5v10c0 .2-.2.5-.5.5zM563.3 80.8c-.3 0-.5-.2-.5-.5v-8c0-.3.2-.5.5-.5s.5.2.5.5v8c0 .2-.2.5-.5.5zM545.3 80.8c-.3 0-.5-.2-.5-.5v-8c0-.3.2-.5.5-.5s.5.2.5.5v8c0 .2-.2.5-.5.5zM543.3 77.8c-.3 0-.5-.2-.5-.5v-2c0-.3.2-.5.5-.5s.5.2.5.5v2c0 .2-.2.5-.5.5zM565.3 77.8c-.3 0-.5-.2-.5-.5v-2c0-.3.2-.5.5-.5s.5.2.5.5v2c0 .2-.2.5-.5.5z"/></g><path class="st0" d="M593.6 13.2c.7-.9 1.2-2.3 1.2-3.3V7.3c0-2.6-5.2-4-10-4s-10 1.4-10 4v2.5c0 1.2.7 2.9 1.6 3.8l6.4 6.4v5.8c0 .8.7 1.5 1.5 1.5h1c.8 0 1.5-.7 1.5-1.5v-3c.8.4 1.6.5 2.5.5 3.3 0 6-2.7 6-6-.1-1.5-.7-3-1.7-4.1zm-8.8-2.9c-5.3 0-9-1.6-9-3s3.7-3 9-3 9 1.6 9 3-3.7 3-9 3zm4.4 12c-.9 0-1.7-.2-2.5-.7V20l6.1-6.1c.9.9 1.4 2.1 1.4 3.4 0 2.8-2.2 5-5 5z"/><path class="st1" d="M593.6 43.2c.7-.9 1.2-2.3 1.2-3.3v-2.5c0-2.6-5.2-4-10-4s-10 1.4-10 4v2.5c0 1.2.7 2.9 1.6 3.8l6.4 6.4v5.8c0 .8.7 1.5 1.5 1.5h1c.8 0 1.5-.7 1.5-1.5v-3c.8.4 1.6.5 2.5.5 3.3 0 6-2.7 6-6-.1-1.6-.7-3.1-1.7-4.2zm-8.8-2.9c-5.3 0-9-1.6-9-3s3.7-3 9-3 9 1.6 9 3-3.7 3-9 3zm4.4 12c-.9 0-1.7-.2-2.5-.7V50l6.1-6.1c.9.9 1.4 2.1 1.4 3.4 0 2.8-2.2 5-5 5z"/><path class="st2" d="M593.6 73.2c.7-.9 1.2-2.3 1.2-3.3v-2.5c0-2.6-5.2-4-10-4s-10 1.4-10 4v2.5c0 1.2.7 2.9 1.6 3.8l6.4 6.4v5.8c0 .8.7 1.5 1.5 1.5h1c.8 0 1.5-.7 1.5-1.5v-3c.8.4 1.6.5 2.5.5 3.3 0 6-2.7 6-6-.1-1.6-.7-3.1-1.7-4.2zm-8.8-2.9c-5.3 0-9-1.6-9-3s3.7-3 9-3 9 1.6 9 3-3.7 3-9 3zm4.4 12c-.9 0-1.7-.2-2.5-.7V80l6.1-6.1c.9.9 1.4 2.1 1.4 3.4 0 2.8-2.2 5-5 5z"/><path class="st0" d="M614.8 2.9c-6.6 0-12 5.4-12 12s5.4 12 12 12 12-5.4 12-12-5.4-12-12-12zm5.8 17.8c-.2.2-.5.2-.7 0l-6-5.5c-.1-.1-.2-.2-.2-.4V9.4c0-.3.2-.5.5-.5s.5.2.5.5v5.3l5.8 5.4c.3.1.3.4.1.6z"/><path class="st1" d="M614.8 32.9c-6.6 0-12 5.4-12 12s5.4 12 12 12 12-5.4 12-12-5.4-12-12-12zm5.8 17.8c-.2.2-.5.2-.7 0l-6-5.5c-.1-.1-.2-.2-.2-.4v-5.5c0-.3.2-.5.5-.5s.5.2.5.5v5.3l5.8 5.4c.3.2.3.5.1.7z"/><path class="st2" d="M614.8 62.9c-6.6 0-12 5.4-12 12s5.4 12 12 12 12-5.4 12-12-5.4-12-12-12zm5.8 17.8c-.2.2-.5.2-.7 0l-6-5.5c-.1-.1-.2-.2-.2-.4v-5.5c0-.3.2-.5.5-.5s.5.2.5.5v5.3l5.8 5.4c.3.2.3.5.1.7z"/></svg>